<svg version="1.1" id="Layer_1" xmlns="http://www.w3.org/2000/svg" xmlns:xlink="http://www.w3.org/1999/xlink" x="0px" y="0px"
	 width="100%" viewBox="0 0 180 180" enable-background="new 0 0 180 180" xml:space="preserve">
<path fill="#EE4518" opacity="1.000000" stroke="none" 
	d="
M181.000000,75.000000 
	C181.000000,83.354233 181.000000,91.708466 180.655151,100.603607 
	C178.280167,102.523232 175.971863,103.622231 174.261917,105.322884 
	C151.171005,128.288300 128.135422,151.309723 105.189186,174.419601 
	C103.399246,176.222305 102.378326,178.788605 101.000000,181.000000 
	C89.312439,181.000000 77.624878,181.000000 65.548615,180.667343 
	C66.381088,178.781845 67.463211,177.091019 68.845551,175.698135 
	C79.407669,165.055527 90.093079,154.534363 100.577339,143.816193 
	C102.735695,141.609680 104.211235,138.735275 106.465118,136.098587 
	C112.998779,136.028458 119.068810,136.028458 125.544380,136.028458 
	C124.811333,134.122971 124.297195,132.786499 123.963074,131.134598 
	C124.541313,130.286804 124.881287,129.696320 125.346153,129.230469 
	C142.632431,111.906937 159.917740,94.582367 177.258392,77.313354 
	C178.270126,76.305801 179.742172,75.760452 181.000000,75.000000 
z"/>
<path fill="#F95C12" opacity="1.000000" stroke="none" 
	d="
M0.999999,108.000000 
	C1.000000,98.979103 1.000000,89.958214 1.358864,80.441360 
	C3.365564,78.909538 5.276471,78.137962 6.622127,76.798515 
	C30.120270,53.408867 53.570953,29.971298 76.939514,6.452298 
	C78.355019,5.027676 78.997719,2.835195 80.000000,1.000000 
	C88.687561,1.000000 97.375130,1.000000 106.504059,1.358869 
	C105.800674,3.474691 104.913544,5.485902 103.470276,6.948229 
	C92.299980,18.266045 80.997665,29.453484 69.807343,40.751724 
	C68.332596,42.240688 67.259842,44.127804 65.548767,45.901695 
	C62.546848,45.972866 59.997059,45.972866 56.830517,45.972866 
	C56.830517,49.611954 56.830517,52.806377 56.482300,56.030964 
	C54.272488,57.357677 52.173229,58.414539 50.586296,59.988083 
	C35.733128,74.715881 20.988811,89.553444 6.144320,104.290062 
	C4.662368,105.761230 2.725652,106.774307 0.999999,108.000000 
z"/>
<path fill="#F35016" opacity="1.000000" stroke="none" 
	d="
M165.000000,0.999999 
	C170.272736,1.000000 175.545456,1.000000 181.000000,1.000000 
	C181.000000,8.353437 181.000000,15.707982 180.667358,23.611298 
	C178.664932,25.498236 176.853165,26.694019 175.346741,28.196012 
	C154.004166,49.475658 132.725601,70.819572 111.354088,92.070038 
	C109.386322,94.026649 106.889809,95.451485 104.388741,96.906921 
	C100.878868,92.866745 101.561653,89.371803 104.047310,85.168610 
	C110.971001,73.460777 117.432022,61.477654 123.947144,49.533092 
	C124.469803,48.574890 124.006554,47.078930 124.031418,45.484497 
	C125.237122,43.394592 126.174965,41.418030 127.626404,39.948864 
	C138.805389,28.633244 150.111435,17.443220 161.298203,6.135203 
	C162.764328,4.653173 163.777191,2.722743 165.000000,0.999999 
z"/>
<path fill="#EC4119" opacity="1.000000" stroke="none" 
	d="
M101.468658,181.000000 
	C102.378326,178.788605 103.399246,176.222305 105.189186,174.419601 
	C128.135422,151.309723 151.171005,128.288300 174.261917,105.322884 
	C175.971863,103.622231 178.280167,102.523232 180.655151,101.072266 
	C181.000000,112.687561 181.000000,124.375122 180.667389,136.611404 
	C179.135818,138.028122 177.796066,138.754562 176.759384,139.785690 
	C164.358185,152.120468 151.982513,164.481216 139.666702,176.901123 
	C138.542862,178.034470 137.877991,179.622894 137.000000,181.000000 
	C125.312439,181.000000 113.624878,181.000000 101.468658,181.000000 
z"/>
<path fill="#FB6011" opacity="1.000000" stroke="none" 
	d="
M79.531342,1.000000 
	C78.997719,2.835195 78.355019,5.027676 76.939514,6.452298 
	C53.570953,29.971298 30.120270,53.408867 6.622127,76.798515 
	C5.276471,78.137962 3.365564,78.909538 1.358864,79.972702 
	C1.000000,68.979103 1.000000,57.958210 1.358865,46.441368 
	C3.360752,44.914349 5.260083,44.142601 6.606686,42.811638 
	C18.533661,31.023165 30.412085,19.184124 42.164547,7.222174 
	C43.829361,5.527683 44.740192,3.092407 46.000000,1.000000 
	C57.020893,1.000000 68.041786,1.000000 79.531342,1.000000 
z"/>
<path fill="#F14B17" opacity="1.000000" stroke="none" 
	d="
M104.638824,97.123260 
	C106.889809,95.451485 109.386322,94.026649 111.354088,92.070038 
	C132.725601,70.819572 154.004166,49.475658 175.346741,28.196012 
	C176.853165,26.694019 178.664932,25.498236 180.667358,24.080034 
	C181.000000,33.687561 181.000000,43.375122 180.667389,53.611397 
	C178.667068,55.496185 176.862122,56.693699 175.352463,58.189293 
	C155.510345,77.846687 135.709900,97.546135 115.614029,117.029297 
	C111.765648,110.256798 108.202232,103.690025 104.638824,97.123260 
z"/>
<path fill="#F14B17" opacity="1.000000" stroke="none" 
	d="
M106.001495,136.168716 
	C104.211235,138.735275 102.735695,141.609680 100.577339,143.816193 
	C90.093079,154.534363 79.407669,165.055527 68.845551,175.698135 
	C67.463211,177.091019 66.381088,178.781845 65.079956,180.667343 
	C53.312439,181.000000 41.624878,181.000000 29.495792,180.641098 
	C30.198986,178.525146 31.086046,176.513779 32.529346,175.051422 
	C43.700100,163.733109 55.002872,152.545166 66.193703,141.246460 
	C67.668625,139.757324 68.741798,137.870270 70.450607,136.097565 
	C73.485115,136.027603 76.070045,136.027603 79.112762,136.027603 
	C79.112762,132.573303 79.112762,129.786942 79.449585,126.923523 
	C83.756676,123.899757 87.726936,120.953049 91.915512,118.300049 
	C94.668343,123.102470 97.431107,127.502243 99.653908,132.159714 
	C101.043121,135.070572 102.852448,136.460648 106.001495,136.168716 
z"/>
<path fill="#F55414" opacity="1.000000" stroke="none" 
	d="
M1.000001,170.000000 
	C1.000000,159.312439 1.000000,148.624878 1.332627,137.388596 
	C3.330739,135.506012 5.136247,134.312851 6.640013,132.816467 
	C21.352266,118.176468 35.977375,103.448631 50.741360,88.861244 
	C52.411762,87.210831 54.783867,86.270607 56.900860,85.465019 
	C56.924706,96.619392 56.878277,107.309807 56.511391,118.088600 
	C54.658314,119.420189 53.003002,120.540215 51.611935,121.925560 
	C36.782799,136.693771 22.034491,151.543488 7.142237,166.247513 
	C5.480137,167.888596 3.065595,168.767593 1.000001,170.000000 
z"/>
<path fill="#F65515" opacity="1.000000" stroke="none" 
	d="
M164.531342,0.999999 
	C163.777191,2.722743 162.764328,4.653173 161.298203,6.135203 
	C150.111435,17.443220 138.805389,28.633244 127.626404,39.948864 
	C126.174965,41.418030 125.237122,43.394592 123.567520,45.555840 
	C117.263496,45.982807 111.445442,46.172295 105.646439,45.921429 
	C102.688744,45.793480 101.230461,46.929249 99.893341,49.425476 
	C94.651337,59.211548 89.195953,68.883484 83.801605,78.587677 
	C82.497307,80.934052 81.123230,83.241638 79.113167,86.724709 
	C79.113167,75.149704 79.113167,65.075165 79.464920,54.971230 
	C81.452301,53.886490 83.333633,53.078880 84.685822,51.737766 
	C99.456764,37.087730 114.188057,22.396791 128.800217,7.588779 
	C130.588898,5.776124 131.618576,3.214522 133.000000,1.000000 
	C143.354233,1.000000 153.708450,1.000000 164.531342,0.999999 
z"/>
<path fill="#F35016" opacity="1.000000" stroke="none" 
	d="
M1.000001,170.482956 
	C3.065595,168.767593 5.480137,167.888596 7.142237,166.247513 
	C22.034491,151.543488 36.782799,136.693771 51.611935,121.925560 
	C53.003002,120.540215 54.658314,119.420189 56.581940,118.552101 
	C56.972942,124.523262 56.972942,130.119308 56.972942,136.167511 
	C61.735210,136.167511 65.868126,136.167511 70.001038,136.167511 
	C68.741798,137.870270 67.668625,139.757324 66.193703,141.246460 
	C55.002872,152.545166 43.700100,163.733109 32.529346,175.051422 
	C31.086046,176.513779 30.198986,178.525146 29.027134,180.641098 
	C19.779615,181.000000 10.559230,181.000000 1.000000,181.000000 
	C1.000000,177.662933 1.000000,174.314423 1.000001,170.482956 
z"/>
<path fill="#F75813" opacity="1.000000" stroke="none" 
	d="
M56.830585,85.001060 
	C54.783867,86.270607 52.411762,87.210831 50.741360,88.861244 
	C35.977375,103.448631 21.352266,118.176468 6.640013,132.816467 
	C5.136247,134.312851 3.330739,135.506012 1.332627,136.919937 
	C1.000000,127.645775 1.000000,118.291542 0.999999,108.468658 
	C2.725652,106.774307 4.662368,105.761230 6.144320,104.290062 
	C20.988811,89.553444 35.733128,74.715881 50.586296,59.988083 
	C52.173229,58.414539 54.272488,57.357677 56.552628,56.494926 
	C56.924313,66.286171 56.877449,75.643616 56.830585,85.001060 
z"/>
<path fill="#EF4818" opacity="1.000000" stroke="none" 
	d="
M115.899010,117.235039 
	C135.709900,97.546135 155.510345,77.846687 175.352463,58.189293 
	C176.862122,56.693699 178.667068,55.496185 180.667389,54.080055 
	C181.000000,60.687645 181.000000,67.375290 181.000000,74.531464 
	C179.742172,75.760452 178.270126,76.305801 177.258392,77.313354 
	C159.917740,94.582367 142.632431,111.906937 125.346153,129.230469 
	C124.881287,129.696320 124.541313,130.286804 123.684326,130.914276 
	C120.783371,126.417938 118.341187,121.826485 115.899010,117.235039 
z"/>
<path fill="#F75813" opacity="1.000000" stroke="none" 
	d="
M132.531342,1.000000 
	C131.618576,3.214522 130.588898,5.776124 128.800217,7.588779 
	C114.188057,22.396791 99.456764,37.087730 84.685822,51.737766 
	C83.333633,53.078880 81.452301,53.886490 79.383789,54.522850 
	C78.950905,51.512383 78.950905,48.920895 78.950905,45.830521 
	C74.216698,45.830521 70.108803,45.830521 66.000900,45.830521 
	C67.259842,44.127804 68.332596,42.240688 69.807343,40.751724 
	C80.997665,29.453484 92.299980,18.266045 103.470276,6.948229 
	C104.913544,5.485902 105.800674,3.474691 106.972717,1.358869 
	C115.354233,1.000000 123.708466,1.000000 132.531342,1.000000 
z"/>
<path fill="#FD6510" opacity="1.000000" stroke="none" 
	d="
M45.531342,1.000000 
	C44.740192,3.092407 43.829361,5.527683 42.164547,7.222174 
	C30.412085,19.184124 18.533661,31.023165 6.606686,42.811638 
	C5.260083,44.142601 3.360752,44.914349 1.358865,45.972710 
	C1.000000,31.073294 1.000000,16.146585 1.000000,1.000000 
	C15.686830,1.000000 30.374756,1.000000 45.531342,1.000000 
z"/>
<path fill="#EA3C1A" opacity="1.000000" stroke="none" 
	d="
M137.468658,181.000000 
	C137.877991,179.622894 138.542862,178.034470 139.666702,176.901123 
	C151.982513,164.481216 164.358185,152.120468 176.759384,139.785690 
	C177.796066,138.754562 179.135818,138.028122 180.667389,137.080063 
	C181.000000,151.593369 181.000000,166.186722 181.000000,181.000000 
	C166.646515,181.000000 152.291916,181.000000 137.468658,181.000000 
z"/>
<path fill="#FFFEFD" opacity="1.000000" stroke="none" 
	d="
M65.548767,45.901695 
	C70.108803,45.830521 74.216698,45.830521 78.950905,45.830521 
	C78.950905,48.920895 78.950905,51.512383 79.032036,54.552242 
	C79.113167,65.075165 79.113167,75.149704 79.113167,86.724709 
	C81.123230,83.241638 82.497307,80.934052 83.801605,78.587677 
	C89.195953,68.883484 94.651337,59.211548 99.893341,49.425476 
	C101.230461,46.929249 102.688744,45.793480 105.646439,45.921429 
	C111.445442,46.172295 117.263496,45.982807 123.537567,45.904213 
	C124.006554,47.078930 124.469803,48.574890 123.947144,49.533092 
	C117.432022,61.477654 110.971001,73.460777 104.047310,85.168610 
	C101.561653,89.371803 100.878868,92.866745 104.388748,96.906929 
	C108.202232,103.690025 111.765648,110.256798 115.614029,117.029297 
	C118.341187,121.826485 120.783371,126.417938 123.504303,131.229706 
	C124.297195,132.786499 124.811333,134.122971 125.544380,136.028458 
	C119.068810,136.028458 112.998779,136.028458 106.465118,136.098587 
	C102.852448,136.460648 101.043121,135.070572 99.653908,132.159714 
	C97.431107,127.502243 94.668343,123.102470 91.824432,117.977013 
	C87.644127,110.383064 83.773201,103.405861 79.902275,96.428665 
	C79.639107,96.545769 79.375931,96.662865 79.112762,96.779968 
	C79.112762,106.853508 79.112762,116.927040 79.112762,127.000580 
	C79.112762,129.786942 79.112762,132.573303 79.112762,136.027603 
	C76.070045,136.027603 73.485115,136.027603 70.450607,136.097565 
	C65.868126,136.167511 61.735210,136.167511 56.972942,136.167511 
	C56.972942,130.119308 56.972942,124.523262 56.902397,118.463722 
	C56.878277,107.309807 56.924706,96.619392 56.900860,85.465019 
	C56.877449,75.643616 56.924313,66.286171 56.900845,56.464764 
	C56.830517,52.806377 56.830517,49.611954 56.830517,45.972866 
	C59.997059,45.972866 62.546848,45.972866 65.548767,45.901695 
z"/>
<path fill="#F35016" opacity="1.000000" stroke="none" 
	d="
M79.449585,126.923523 
	C79.112762,116.927040 79.112762,106.853508 79.112762,96.779968 
	C79.375931,96.662865 79.639107,96.545769 79.902275,96.428665 
	C83.773201,103.405861 87.644127,110.383064 91.606125,117.683304 
	C87.726936,120.953049 83.756676,123.899757 79.449585,126.923523 
z"/>
</svg>